<mxfile host="Electron" agent="Mozilla/5.0 (Windows NT 10.0; Win64; x64) AppleWebKit/537.36 (KHTML, like Gecko) draw.io/24.7.8 Chrome/128.0.6613.36 Electron/32.0.1 Safari/537.36" version="24.7.8" pages="2">
  <diagram name="1-hub-and-spoke" id="FtN1lYE8-qC8ZnnNNKp6">
    <mxGraphModel dx="2074" dy="1197" grid="1" gridSize="10" guides="1" tooltips="1" connect="1" arrows="1" fold="1" page="1" pageScale="1" pageWidth="1169" pageHeight="827" math="0" shadow="0">
      <root>
        <mxCell id="0" />
        <mxCell id="1" parent="0" />
        <mxCell id="HiynBKJIJ6nynwn6lv4R-1" value="hub-vnet-uks&lt;div&gt;10.0.0.0/16&lt;br&gt;&lt;/div&gt;" style="rounded=0;whiteSpace=wrap;html=1;verticalAlign=top;" vertex="1" parent="1">
          <mxGeometry x="480" y="80" width="200" height="230" as="geometry" />
        </mxCell>
        <mxCell id="HiynBKJIJ6nynwn6lv4R-2" value="hub-uks-fw" style="image;sketch=0;aspect=fixed;html=1;points=[];align=center;fontSize=12;image=img/lib/mscae/Azure_Firewall.svg;" vertex="1" parent="1">
          <mxGeometry x="555" y="210" width="50" height="50" as="geometry" />
        </mxCell>
        <mxCell id="HiynBKJIJ6nynwn6lv4R-3" value="Bastion" style="image;aspect=fixed;html=1;points=[];align=center;fontSize=12;image=img/lib/azure2/networking/Bastions.svg;" vertex="1" parent="1">
          <mxGeometry x="556" y="116" width="48" height="56.28" as="geometry" />
        </mxCell>
        <mxCell id="HiynBKJIJ6nynwn6lv4R-4" value="" style="image;aspect=fixed;html=1;points=[];align=center;fontSize=12;image=img/lib/azure2/networking/Virtual_Networks.svg;" vertex="1" parent="1">
          <mxGeometry x="640" y="70" width="50.25" height="30" as="geometry" />
        </mxCell>
        <mxCell id="HiynBKJIJ6nynwn6lv4R-5" style="edgeStyle=orthogonalEdgeStyle;rounded=0;orthogonalLoop=1;jettySize=auto;html=1;entryX=0;entryY=0.5;entryDx=0;entryDy=0;exitX=0.5;exitY=0;exitDx=0;exitDy=0;startArrow=classic;startFill=1;fillColor=#d5e8d4;strokeColor=#82b366;" edge="1" parent="1" source="HiynBKJIJ6nynwn6lv4R-6" target="HiynBKJIJ6nynwn6lv4R-1">
          <mxGeometry relative="1" as="geometry" />
        </mxCell>
        <mxCell id="HiynBKJIJ6nynwn6lv4R-6" value="spoke-one-uks-vnet&lt;div&gt;10.10.0.0/16&lt;br&gt;&lt;/div&gt;" style="rounded=0;whiteSpace=wrap;html=1;verticalAlign=top;" vertex="1" parent="1">
          <mxGeometry x="200" y="360" width="200" height="260" as="geometry" />
        </mxCell>
        <mxCell id="HiynBKJIJ6nynwn6lv4R-7" value="" style="image;aspect=fixed;html=1;points=[];align=center;fontSize=12;image=img/lib/azure2/networking/Virtual_Networks.svg;" vertex="1" parent="1">
          <mxGeometry x="360" y="350" width="50.25" height="30" as="geometry" />
        </mxCell>
        <mxCell id="HiynBKJIJ6nynwn6lv4R-8" value="vm-subnet" style="rounded=0;whiteSpace=wrap;html=1;verticalAlign=top;" vertex="1" parent="1">
          <mxGeometry x="240" y="400" width="120" height="198" as="geometry" />
        </mxCell>
        <mxCell id="HiynBKJIJ6nynwn6lv4R-9" value="VM" style="image;aspect=fixed;html=1;points=[];align=center;fontSize=12;image=img/lib/azure2/compute/Virtual_Machine.svg;" vertex="1" parent="1">
          <mxGeometry x="270.5" y="508" width="59" height="54.72" as="geometry" />
        </mxCell>
        <mxCell id="HiynBKJIJ6nynwn6lv4R-10" style="edgeStyle=orthogonalEdgeStyle;rounded=0;orthogonalLoop=1;jettySize=auto;html=1;dashed=1;dashPattern=8 8;fillColor=#f5f5f5;strokeColor=#666666;entryX=0.01;entryY=0.479;entryDx=0;entryDy=0;entryPerimeter=0;" edge="1" parent="1" source="HiynBKJIJ6nynwn6lv4R-11" target="HiynBKJIJ6nynwn6lv4R-2">
          <mxGeometry relative="1" as="geometry">
            <mxPoint x="600" y="380" as="targetPoint" />
            <Array as="points">
              <mxPoint x="440" y="449" />
              <mxPoint x="440" y="234" />
            </Array>
          </mxGeometry>
        </mxCell>
        <mxCell id="HiynBKJIJ6nynwn6lv4R-11" value="Route Table" style="image;aspect=fixed;html=1;points=[];align=center;fontSize=12;image=img/lib/azure2/networking/Route_Tables.svg;" vertex="1" parent="1">
          <mxGeometry x="278" y="428" width="44" height="42.63" as="geometry" />
        </mxCell>
        <mxCell id="HiynBKJIJ6nynwn6lv4R-12" style="edgeStyle=orthogonalEdgeStyle;rounded=0;orthogonalLoop=1;jettySize=auto;html=1;entryX=1;entryY=0.5;entryDx=0;entryDy=0;exitX=0.5;exitY=0;exitDx=0;exitDy=0;startArrow=classic;startFill=1;fillColor=#d5e8d4;strokeColor=#82b366;" edge="1" parent="1" source="HiynBKJIJ6nynwn6lv4R-13" target="HiynBKJIJ6nynwn6lv4R-1">
          <mxGeometry relative="1" as="geometry" />
        </mxCell>
        <mxCell id="HiynBKJIJ6nynwn6lv4R-13" value="spoke-two-uks-vnet&lt;div&gt;10.20.0.0/16&lt;br&gt;&lt;/div&gt;" style="rounded=0;whiteSpace=wrap;html=1;verticalAlign=top;" vertex="1" parent="1">
          <mxGeometry x="760" y="360" width="200" height="260" as="geometry" />
        </mxCell>
        <mxCell id="HiynBKJIJ6nynwn6lv4R-14" value="" style="image;aspect=fixed;html=1;points=[];align=center;fontSize=12;image=img/lib/azure2/networking/Virtual_Networks.svg;" vertex="1" parent="1">
          <mxGeometry x="920" y="350" width="50.25" height="30" as="geometry" />
        </mxCell>
        <mxCell id="HiynBKJIJ6nynwn6lv4R-15" value="vm-subnet" style="rounded=0;whiteSpace=wrap;html=1;verticalAlign=top;" vertex="1" parent="1">
          <mxGeometry x="800" y="400" width="120" height="198" as="geometry" />
        </mxCell>
        <mxCell id="HiynBKJIJ6nynwn6lv4R-16" value="VM" style="image;aspect=fixed;html=1;points=[];align=center;fontSize=12;image=img/lib/azure2/compute/Virtual_Machine.svg;" vertex="1" parent="1">
          <mxGeometry x="830.5" y="508" width="59" height="54.72" as="geometry" />
        </mxCell>
        <mxCell id="HiynBKJIJ6nynwn6lv4R-17" value="Route Table" style="image;aspect=fixed;html=1;points=[];align=center;fontSize=12;image=img/lib/azure2/networking/Route_Tables.svg;" vertex="1" parent="1">
          <mxGeometry x="838" y="428" width="44" height="42.63" as="geometry" />
        </mxCell>
        <mxCell id="HiynBKJIJ6nynwn6lv4R-18" style="edgeStyle=orthogonalEdgeStyle;rounded=0;orthogonalLoop=1;jettySize=auto;html=1;entryX=0.994;entryY=0.511;entryDx=0;entryDy=0;entryPerimeter=0;fillColor=#f5f5f5;strokeColor=#666666;dashed=1;dashPattern=8 8;" edge="1" parent="1" source="HiynBKJIJ6nynwn6lv4R-17" target="HiynBKJIJ6nynwn6lv4R-2">
          <mxGeometry relative="1" as="geometry">
            <Array as="points">
              <mxPoint x="720" y="449" />
              <mxPoint x="720" y="236" />
            </Array>
          </mxGeometry>
        </mxCell>
      </root>
    </mxGraphModel>
  </diagram>
  <diagram name="3-vwan-hub-and-spoke" id="2KxbMYDpn8PGYKLZBT-O">
    <mxGraphModel dx="2074" dy="1197" grid="0" gridSize="10" guides="1" tooltips="1" connect="1" arrows="1" fold="1" page="1" pageScale="1" pageWidth="1169" pageHeight="827" math="0" shadow="0">
      <root>
        <mxCell id="hEh8VFXEYbfgjWeAV4Zx-0" />
        <mxCell id="hEh8VFXEYbfgjWeAV4Zx-1" parent="hEh8VFXEYbfgjWeAV4Zx-0" />
        <mxCell id="LPGihitNi9VFBJ5VpGQf-8" style="edgeStyle=orthogonalEdgeStyle;rounded=0;orthogonalLoop=1;jettySize=auto;html=1;entryX=0.5;entryY=0;entryDx=0;entryDy=0;startArrow=classic;startFill=1;fillColor=#d5e8d4;strokeColor=#82b366;" edge="1" parent="hEh8VFXEYbfgjWeAV4Zx-1" source="hEh8VFXEYbfgjWeAV4Zx-2" target="LPGihitNi9VFBJ5VpGQf-4">
          <mxGeometry relative="1" as="geometry" />
        </mxCell>
        <mxCell id="hEh8VFXEYbfgjWeAV4Zx-2" value="vwan" style="rounded=0;whiteSpace=wrap;html=1;verticalAlign=top;" vertex="1" parent="hEh8VFXEYbfgjWeAV4Zx-1">
          <mxGeometry x="480" y="80" width="200" height="180" as="geometry" />
        </mxCell>
        <mxCell id="hEh8VFXEYbfgjWeAV4Zx-6" style="edgeStyle=orthogonalEdgeStyle;rounded=0;orthogonalLoop=1;jettySize=auto;html=1;entryX=0;entryY=0.5;entryDx=0;entryDy=0;exitX=0.5;exitY=0;exitDx=0;exitDy=0;startArrow=classic;startFill=1;fillColor=#d5e8d4;strokeColor=#82b366;" edge="1" parent="hEh8VFXEYbfgjWeAV4Zx-1" source="hEh8VFXEYbfgjWeAV4Zx-7" target="hEh8VFXEYbfgjWeAV4Zx-2">
          <mxGeometry relative="1" as="geometry" />
        </mxCell>
        <mxCell id="hEh8VFXEYbfgjWeAV4Zx-7" value="bastion-uks-vnet&lt;div&gt;10.2.0.0/16&lt;br&gt;&lt;/div&gt;" style="rounded=0;whiteSpace=wrap;html=1;verticalAlign=top;" vertex="1" parent="hEh8VFXEYbfgjWeAV4Zx-1">
          <mxGeometry x="200" y="360" width="200" height="200" as="geometry" />
        </mxCell>
        <mxCell id="hEh8VFXEYbfgjWeAV4Zx-8" value="" style="image;aspect=fixed;html=1;points=[];align=center;fontSize=12;image=img/lib/azure2/networking/Virtual_Networks.svg;" vertex="1" parent="hEh8VFXEYbfgjWeAV4Zx-1">
          <mxGeometry x="360" y="350" width="50.25" height="30" as="geometry" />
        </mxCell>
        <mxCell id="hEh8VFXEYbfgjWeAV4Zx-9" value="AzureBastionSubnet&lt;br&gt;10.2.5.0/27" style="rounded=0;whiteSpace=wrap;html=1;verticalAlign=top;" vertex="1" parent="hEh8VFXEYbfgjWeAV4Zx-1">
          <mxGeometry x="240" y="400" width="120" height="140" as="geometry" />
        </mxCell>
        <mxCell id="hEh8VFXEYbfgjWeAV4Zx-13" style="edgeStyle=orthogonalEdgeStyle;rounded=0;orthogonalLoop=1;jettySize=auto;html=1;entryX=1;entryY=0.5;entryDx=0;entryDy=0;exitX=0.5;exitY=0;exitDx=0;exitDy=0;startArrow=classic;startFill=1;fillColor=#d5e8d4;strokeColor=#82b366;" edge="1" parent="hEh8VFXEYbfgjWeAV4Zx-1" source="hEh8VFXEYbfgjWeAV4Zx-14" target="hEh8VFXEYbfgjWeAV4Zx-2">
          <mxGeometry relative="1" as="geometry" />
        </mxCell>
        <mxCell id="hEh8VFXEYbfgjWeAV4Zx-14" value="spoke-two-uks-vnet&lt;div&gt;10.20.0.0/16&lt;br&gt;&lt;/div&gt;" style="rounded=0;whiteSpace=wrap;html=1;verticalAlign=top;" vertex="1" parent="hEh8VFXEYbfgjWeAV4Zx-1">
          <mxGeometry x="760" y="360" width="200" height="200" as="geometry" />
        </mxCell>
        <mxCell id="hEh8VFXEYbfgjWeAV4Zx-15" value="" style="image;aspect=fixed;html=1;points=[];align=center;fontSize=12;image=img/lib/azure2/networking/Virtual_Networks.svg;" vertex="1" parent="hEh8VFXEYbfgjWeAV4Zx-1">
          <mxGeometry x="920" y="350" width="50.25" height="30" as="geometry" />
        </mxCell>
        <mxCell id="hEh8VFXEYbfgjWeAV4Zx-16" value="vm-subnet" style="rounded=0;whiteSpace=wrap;html=1;verticalAlign=top;" vertex="1" parent="hEh8VFXEYbfgjWeAV4Zx-1">
          <mxGeometry x="800" y="400" width="120" height="140" as="geometry" />
        </mxCell>
        <mxCell id="hEh8VFXEYbfgjWeAV4Zx-17" value="VM" style="image;aspect=fixed;html=1;points=[];align=center;fontSize=12;image=img/lib/azure2/compute/Virtual_Machine.svg;" vertex="1" parent="hEh8VFXEYbfgjWeAV4Zx-1">
          <mxGeometry x="830.5" y="446.64" width="59" height="54.72" as="geometry" />
        </mxCell>
        <mxCell id="LPGihitNi9VFBJ5VpGQf-0" value="" style="image;aspect=fixed;html=1;points=[];align=center;fontSize=12;image=img/lib/azure2/networking/Virtual_WAN_Hub.svg;" vertex="1" parent="hEh8VFXEYbfgjWeAV4Zx-1">
          <mxGeometry x="625" y="40" width="65" height="64" as="geometry" />
        </mxCell>
        <mxCell id="LPGihitNi9VFBJ5VpGQf-2" value="vhub-uks&lt;br&gt;10.0.0.0/16" style="rounded=0;whiteSpace=wrap;html=1;verticalAlign=top;" vertex="1" parent="hEh8VFXEYbfgjWeAV4Zx-1">
          <mxGeometry x="520" y="120" width="120" height="120" as="geometry" />
        </mxCell>
        <mxCell id="LPGihitNi9VFBJ5VpGQf-1" value="" style="image;aspect=fixed;html=1;points=[];align=center;fontSize=12;image=img/lib/azure2/networking/Virtual_WANs.svg;" vertex="1" parent="hEh8VFXEYbfgjWeAV4Zx-1">
          <mxGeometry x="547.5" y="163" width="65" height="64" as="geometry" />
        </mxCell>
        <mxCell id="LPGihitNi9VFBJ5VpGQf-4" value="spoke-one-uks-vnet&lt;div&gt;10.10.0.0/16&lt;br&gt;&lt;/div&gt;" style="rounded=0;whiteSpace=wrap;html=1;verticalAlign=top;" vertex="1" parent="hEh8VFXEYbfgjWeAV4Zx-1">
          <mxGeometry x="480" y="360" width="200" height="200" as="geometry" />
        </mxCell>
        <mxCell id="LPGihitNi9VFBJ5VpGQf-5" value="" style="image;aspect=fixed;html=1;points=[];align=center;fontSize=12;image=img/lib/azure2/networking/Virtual_Networks.svg;" vertex="1" parent="hEh8VFXEYbfgjWeAV4Zx-1">
          <mxGeometry x="640" y="350" width="50.25" height="30" as="geometry" />
        </mxCell>
        <mxCell id="LPGihitNi9VFBJ5VpGQf-6" value="vm-subnet" style="rounded=0;whiteSpace=wrap;html=1;verticalAlign=top;" vertex="1" parent="hEh8VFXEYbfgjWeAV4Zx-1">
          <mxGeometry x="520" y="400" width="120" height="140" as="geometry" />
        </mxCell>
        <mxCell id="LPGihitNi9VFBJ5VpGQf-7" value="VM" style="image;aspect=fixed;html=1;points=[];align=center;fontSize=12;image=img/lib/azure2/compute/Virtual_Machine.svg;" vertex="1" parent="hEh8VFXEYbfgjWeAV4Zx-1">
          <mxGeometry x="553.5" y="446.64" width="59" height="54.72" as="geometry" />
        </mxCell>
        <mxCell id="LPGihitNi9VFBJ5VpGQf-9" value="Bastion" style="image;aspect=fixed;html=1;points=[];align=center;fontSize=12;image=img/lib/azure2/networking/Bastions.svg;" vertex="1" parent="hEh8VFXEYbfgjWeAV4Zx-1">
          <mxGeometry x="270" y="440" width="58" height="68" as="geometry" />
        </mxCell>
      </root>
    </mxGraphModel>
  </diagram>
</mxfile>
